<svg width="74" height="74" viewBox="0 0 74 74" fill="none" xmlns="http://www.w3.org/2000/svg">
<circle cx="37" cy="37" r="37" fill="black" fill-opacity="0.04"/>
<path d="M24.8354 25.2877C24.7049 25.2877 24.574 25.2385 24.4736 25.1402C24.2691 24.9404 24.2655 24.6127 24.4653 24.4083C25.3048 23.5496 25.3048 22.1522 24.4653 21.293C23.8654 20.6797 23.5352 19.8697 23.5352 19.0115C23.5352 18.1539 23.8654 17.3434 24.4653 16.73C24.6651 16.5256 24.9927 16.522 25.1972 16.7217C25.4016 16.9215 25.4052 17.2492 25.2054 17.4536C24.3659 18.3123 24.3659 19.7097 25.2054 20.5689C25.8053 21.1822 26.1355 21.9922 26.1355 22.8504C26.1355 23.708 25.8053 24.5185 25.2054 25.1319C25.104 25.2359 24.9694 25.2877 24.8354 25.2877ZM50.1646 25.2877C50.0342 25.2877 49.9032 25.2385 49.8028 25.1402C49.5984 24.9404 49.5948 24.6127 49.7945 24.4083C50.6341 23.5496 50.6341 22.1522 49.7945 21.293C49.1947 20.6797 48.8645 19.8697 48.8645 19.0115C48.8645 18.1539 49.1947 17.3434 49.7945 16.73C49.9943 16.5256 50.322 16.522 50.5264 16.7217C50.7308 16.9215 50.7345 17.2492 50.5347 17.4536C49.6952 18.3123 49.6952 19.7097 50.5347 20.5689C51.1346 21.1822 51.4648 21.9922 51.4648 22.8504C51.4648 23.708 51.1346 24.5185 50.5347 25.1319C50.4332 25.2359 50.2992 25.2877 50.1646 25.2877ZM37.5 20.1642C37.3696 20.1642 37.2391 20.115 37.1382 20.0166C36.9338 19.8169 36.9301 19.4892 37.1299 19.2848C37.7717 18.6285 37.7717 17.5602 37.1299 16.9039C36.6268 16.3895 36.3494 15.7094 36.3494 14.9899C36.3494 14.2705 36.6263 13.5904 37.1299 13.0759C37.3297 12.8715 37.6573 12.8679 37.8618 13.0676C38.0662 13.2674 38.0698 13.5951 37.8701 13.7995C37.2283 14.4558 37.2283 15.5241 37.8701 16.1804C38.3731 16.6948 38.6506 17.3749 38.6506 18.0944C38.6506 18.8138 38.3737 19.4939 37.8701 20.0084C37.7686 20.1124 37.6346 20.1642 37.5 20.1642Z" fill="black"/>
<path d="M40.1888 21.8125C40.1888 21.9771 40.1733 22.1448 40.1422 22.3105L39.812 24.0775C39.766 24.3244 39.5496 24.4998 39.3038 24.4998C39.2846 24.4998 39.2655 24.4988 39.2463 24.4967C38.0963 24.3689 36.9038 24.3689 35.7537 24.4967C35.4846 24.5267 35.2377 24.3435 35.188 24.0775L34.8578 22.311C34.7103 21.5222 34.9199 20.7163 35.4323 20.0994C35.9447 19.4824 36.6983 19.1289 37.5 19.1289C38.9829 19.1289 40.1888 20.3328 40.1888 21.8125Z" fill="black"/>
<path d="M53.7561 40.6561H21.2439C20.9582 40.6561 20.7263 40.4242 20.7263 40.1385C20.7263 35.9829 22.2573 31.9959 25.0372 28.9117C27.7964 25.8507 31.5618 23.9171 35.6398 23.4678C36.8649 23.3317 38.1346 23.3317 39.3602 23.4678C43.4377 23.9176 47.203 25.8507 49.9622 28.9117C52.7422 31.9959 54.2732 35.9829 54.2732 40.1385C54.2737 40.4242 54.0418 40.6561 53.7561 40.6561ZM21.7698 39.6209H53.2302C52.9787 31.8138 47.0514 25.3575 39.2463 24.4968C38.0952 24.3689 36.9038 24.3689 35.7537 24.4968C27.9486 25.3575 22.0218 31.8138 21.7698 39.6209ZM24.7117 44.2491C24.4824 44.0017 24.1739 43.8651 23.8437 43.8651H20.9799C20.3143 43.8651 19.7724 44.4313 19.7724 45.1279V54.817C19.7724 55.5131 20.3143 56.0799 20.9799 56.0799H23.8437C24.5098 56.0799 25.0512 55.5131 25.0512 54.817L25.0517 45.1279C25.0517 44.7982 24.9311 44.4861 24.7117 44.2491ZM22.9685 46.2966C22.9685 46.6036 22.719 46.853 22.4121 46.853C22.1052 46.853 21.8557 46.6036 21.8557 46.2966C21.8557 45.9902 22.1052 45.7402 22.4121 45.7402C22.719 45.7402 22.9685 45.9902 22.9685 46.2966Z" fill="black"/>
<path d="M37.6579 54.786H24.5336C24.3965 54.786 24.2645 54.7317 24.1677 54.6344C24.0704 54.5371 24.0161 54.4056 24.0161 54.2684L24.0166 46.5048C24.0166 46.2191 24.2484 45.9872 24.5341 45.9872H25.5108C26.2825 45.9872 27.0247 45.6616 27.5475 45.0933C28.2654 44.3128 29.2855 43.8651 30.346 43.8651H37.9254C39.0957 43.8651 40.0475 44.8169 40.0475 45.9872C40.0475 47.1574 39.0957 48.1093 37.9254 48.1093H33.5778C33.3066 48.1093 33.0861 48.3297 33.0861 48.601C33.0861 48.8722 33.3066 49.0927 33.5778 49.0927H39.4073C40.4963 49.0927 41.5785 48.8189 42.5366 48.3002L47.6704 45.5229C48.66 44.9877 49.8815 45.2869 50.5114 46.2191C51.1832 47.2128 50.9218 48.5694 49.9286 49.2422L45.1338 52.4916C42.919 53.9926 40.3337 54.786 37.6579 54.786ZM25.0517 53.7509H37.6579C40.1262 53.7509 42.5107 53.019 44.5541 51.6345L49.3489 48.3851C49.8701 48.0321 50.0073 47.3205 49.6548 46.7987C49.3241 46.3096 48.6833 46.1523 48.1637 46.4333L43.0298 49.2107C41.9212 49.8105 40.6686 50.1273 39.4078 50.1273H33.5773C32.7352 50.1273 32.0504 49.4425 32.0504 48.6004C32.0504 47.7583 32.7352 47.0736 33.5773 47.0736H37.9249C38.5243 47.0736 39.0118 46.586 39.0118 45.9867C39.0118 45.3873 38.5243 44.8998 37.9249 44.8998H30.3455C29.5738 44.8998 28.8316 45.2258 28.3088 45.7936C27.591 46.5741 26.5708 47.0218 25.5103 47.0218H25.0512L25.0517 53.7509Z" fill="black"/>
<path d="M53.1308 44.9002H21.8691C21.7201 44.9002 21.5788 44.8361 21.4804 44.7243L17.7539 40.4801C17.6198 40.3274 17.5877 40.1101 17.6711 39.9253C17.7549 39.74 17.9392 39.621 18.1426 39.621H56.8574C57.0608 39.621 57.2451 39.74 57.3289 39.9253C57.4128 40.1106 57.3807 40.3274 57.2461 40.4801L53.5195 44.7243C53.4212 44.8361 53.2799 44.9002 53.1308 44.9002ZM22.1036 43.8651H52.8969L55.7146 40.6561H19.2859L22.1036 43.8651ZM26.1578 36.4358C26.0977 36.4358 26.0367 36.4254 25.9771 36.4032C25.709 36.3033 25.5729 36.0057 25.6728 35.7376C26.8798 32.496 29.4004 29.8631 32.5892 28.5142C32.8527 28.403 33.156 28.5261 33.2677 28.7891C33.379 29.0525 33.2558 29.3558 32.9929 29.4676C30.0655 30.7057 27.7514 33.1228 26.6438 36.0983C26.5651 36.3069 26.3679 36.4358 26.1578 36.4358Z" fill="black"/>
</svg>
