<svg width="74" height="74" viewBox="0 0 74 74" fill="none" xmlns="http://www.w3.org/2000/svg">
<circle cx="37" cy="37" r="37" fill="black" fill-opacity="0.04"/>
<path d="M55.6337 16H31.5372C28.5776 16 26.169 18.4662 26.169 21.4967V25.4728C25.5625 25.2449 24.9131 25.1237 24.2436 25.1237C21.7672 25.1237 19.6184 26.7519 18.8954 29.176C18.7932 29.5193 18.4981 29.7598 18.1438 29.7882C15.2596 30.0199 13 32.5272 13 35.4961C13 37.4802 13.637 38.7163 14.4431 40.2819C15.6111 42.5496 17.2041 45.6417 18.0531 53.2193C16.0647 54.4964 16.6205 57.2707 18.0263 59.3458C17.502 59.9325 17.2222 60.617 17.2222 61.3514C17.2222 62.4975 17.9022 63.5252 19.137 64.245C20.2487 64.8933 21.7433 65.2502 23.3449 65.2502C24.7622 65.2502 26.0954 64.9706 27.1546 64.4562C28.5203 65.484 29.9757 66.0678 31.1934 66.0678C32.1293 66.0678 33.0347 65.8135 33.8828 65.3118C34.3784 65.0185 34.9706 65.0185 35.4662 65.3118C36.3152 65.8135 37.2197 66.0678 38.1556 66.0678C40.1516 66.0678 42.5612 64.6039 44.4435 62.2472C45.1531 61.3592 45.9267 60.1731 46.5723 58.6642H55.6318C58.5914 58.6642 61 56.198 61 53.1675V21.4967C61 18.4662 58.5914 16 55.6318 16H55.6337ZM15.4583 39.7343C14.6684 38.2019 14.147 37.1898 14.147 35.4961C14.147 33.1365 15.9425 31.1426 18.2345 30.9587C19.0616 30.8922 19.7511 30.327 19.9918 29.5193C20.5658 27.5928 22.2743 26.2981 24.2436 26.2981C25.8949 26.2981 27.401 27.2271 28.1745 28.7233C28.5451 29.441 29.2977 29.8723 30.0875 29.8175C31.3013 29.7373 32.5123 30.1842 33.41 31.0458C34.3135 31.9131 34.8111 33.0905 34.8111 34.3627C34.8111 34.8204 34.7901 35.2927 34.748 35.7885C34.1635 35.5176 33.4778 35.4766 32.8332 35.7298C31.5554 36.2325 30.9155 37.7071 31.4064 39.0155C31.903 40.3396 32.0778 41.3439 32.1465 42.5858C31.4446 42.4039 30.7207 42.3139 29.9795 42.3198C28.8641 42.3257 27.7792 42.5545 26.7716 42.9828C26.6035 39.1651 26.1327 34.3451 25.2617 31.3264C25.1719 31.0154 24.8529 30.8384 24.5502 30.9304C24.2465 31.0223 24.0736 31.3489 24.1634 31.6589C25.0458 34.7177 25.5062 39.7431 25.6494 43.5627C25.0191 43.9499 24.4298 44.4232 23.8979 44.9777C22.239 46.7085 21.305 49.0858 21.3365 51.5012C21.3432 52.0449 21.3718 52.5808 21.4196 53.1088C20.6078 52.8018 19.839 52.6991 19.1628 52.8047C18.2813 45.2124 16.6549 42.0558 15.4583 39.7343ZM34.9734 37.6103C35.7222 39.6032 35.9304 41.1375 35.9905 43.0004C35.7871 43.0874 35.5856 43.1823 35.386 43.2859C34.9419 43.5177 34.4109 43.5187 33.9668 43.2859C33.7519 43.1735 33.5332 43.0708 33.3126 42.9779C33.2572 41.425 33.0844 40.2095 32.477 38.5921C32.2124 37.887 32.5572 37.094 33.2448 36.8231C33.9334 36.5522 34.7079 36.9052 34.9725 37.6093L34.9734 37.6103ZM18.3883 54.4348C19.0482 53.7591 20.2306 53.7718 21.5858 54.4563C21.7538 55.5085 22.0041 56.5265 22.3383 57.5005C21.1627 57.6149 19.9135 57.9464 18.9155 58.5938C17.8115 56.9206 17.5842 55.2582 18.3883 54.4348ZM23.3478 64.0768C20.5572 64.0768 18.3702 62.8798 18.3702 61.3504C18.3702 59.821 20.5562 58.6251 23.3478 58.6251C26.1394 58.6251 28.3254 59.822 28.3254 61.3504C28.3254 62.8789 26.1394 64.0768 23.3478 64.0768ZM43.5592 61.504C41.5593 64.0064 39.4 64.8943 38.1575 64.8943C37.425 64.8943 36.7135 64.6928 36.0411 64.2958C35.1998 63.7981 34.153 63.7981 33.3117 64.2958C32.6393 64.6928 31.9269 64.8943 31.1953 64.8943C30.3234 64.8943 29.2671 64.4953 28.2194 63.7854C29.0322 63.1155 29.4715 62.2716 29.4715 61.3514C29.4715 60.2053 28.7915 59.1776 27.5566 58.4578C26.4899 57.8359 25.0697 57.4829 23.5417 57.4555C22.8665 55.62 22.5102 53.6144 22.4825 51.4865C22.4548 49.3811 23.2695 47.309 24.7164 45.8001C26.1336 44.3225 28.0055 43.503 29.9872 43.4933C31.2049 43.4845 32.369 43.77 33.4473 44.3333C34.218 44.7362 35.1386 44.7362 35.9084 44.3333C36.9866 43.77 38.1537 43.4835 39.3675 43.4933C41.3492 43.503 43.2211 44.3225 44.6384 45.8001C46.0852 47.309 46.8989 49.3811 46.8722 51.4865C46.8082 56.4219 45.0357 59.6587 43.5601 61.5049L43.5592 61.504ZM59.8559 53.1675C59.8559 55.5516 57.962 57.4907 55.6337 57.4907H47.024C47.5913 55.8293 47.9858 53.8422 48.0163 51.5002C48.0402 49.6872 47.5197 47.8967 46.558 46.3839H53.6673C53.9834 46.3839 54.2403 46.1208 54.2403 45.7972C54.2403 45.4735 53.9834 45.2104 53.6673 45.2104H45.6708C45.6001 45.1312 45.5285 45.053 45.4549 44.9767C43.8218 43.2742 41.6625 42.3296 39.3723 42.3178C38.6025 42.3139 37.85 42.4117 37.1222 42.6073C37.0907 41.8749 37.0325 41.1845 36.9265 40.4911H53.6682C53.9843 40.4911 54.2412 40.2281 54.2412 39.9044C54.2412 39.5807 53.9843 39.3177 53.6682 39.3177H36.6982C36.5521 38.6967 36.1462 37.2495 35.8062 36.7136C35.8969 35.9626 35.9466 35.2663 35.9561 34.5974H53.6682C53.9843 34.5974 54.2412 34.3344 54.2412 34.0107C54.2412 33.687 53.9843 33.424 53.6682 33.424H35.8836C35.6878 32.1879 35.1052 31.0624 34.1941 30.1881C33.0662 29.1056 31.5429 28.5424 30.013 28.645C29.6673 28.6685 29.3502 28.4866 29.1869 28.1727C28.7361 27.3014 28.0876 26.5827 27.315 26.0624V21.4957C27.315 19.1116 29.2088 17.1725 31.5372 17.1725H55.6337C57.962 17.1725 59.8559 19.1116 59.8559 21.4957V53.1675ZM43.0864 19.6485C39.9444 19.6485 37.3877 22.2663 37.3877 25.4835C37.3877 28.7008 39.9444 31.3186 43.0864 31.3186C46.2285 31.3186 48.7851 28.7008 48.7851 25.4835C48.7851 22.2663 46.2285 19.6485 43.0864 19.6485ZM43.0864 30.1451C40.5766 30.1451 38.5338 28.0544 38.5338 25.4835C38.5338 22.9127 40.5756 20.822 43.0864 20.822C45.5972 20.822 47.6391 22.9127 47.6391 25.4835C47.6391 28.0544 45.5972 30.1451 43.0864 30.1451ZM40.2385 50.1556C39.7113 50.1556 39.2835 50.5937 39.2835 51.1335C39.2835 51.6733 39.7113 52.1114 40.2385 52.1114C40.7657 52.1114 41.1936 51.6733 41.1936 51.1335C41.1936 50.5937 40.7657 50.1556 40.2385 50.1556ZM29.1143 50.1556C28.5871 50.1556 28.1593 50.5937 28.1593 51.1335C28.1593 51.6733 28.5871 52.1114 29.1143 52.1114C29.6415 52.1114 30.0693 51.6733 30.0693 51.1335C30.0693 50.5937 29.6415 50.1556 29.1143 50.1556ZM44.5581 23.7879L42.4618 25.9343C42.4618 25.9343 41.8401 25.2977 41.6166 25.0689C41.3932 24.8401 41.0302 24.8401 40.8058 25.0689C40.5814 25.2977 40.5823 25.6693 40.8058 25.8991L42.0569 27.1802C42.2804 27.409 42.6433 27.409 42.8668 27.1802L45.368 24.6191C45.5915 24.3903 45.5915 24.0187 45.368 23.7898C45.1445 23.561 44.7816 23.561 44.5581 23.7898V23.7879ZM36.2961 52.2013C35.8177 52.613 35.258 52.8311 34.6764 52.8311C34.0948 52.8311 33.5351 52.613 33.0567 52.2013C32.8141 51.9921 32.4531 52.0243 32.2497 52.2727C32.0462 52.5211 32.0768 52.8907 32.3194 53.099C33.007 53.6916 33.8216 54.0046 34.6764 54.0046C35.5312 54.0046 36.3458 53.6916 37.0334 53.099C37.276 52.8907 37.3066 52.5201 37.1031 52.2727C36.8997 52.0253 36.5378 51.993 36.2961 52.2013Z" fill="black"/>
</svg>
