<svg width="74" height="74" viewBox="0 0 74 74" fill="none" xmlns="http://www.w3.org/2000/svg">
<circle cx="37" cy="37" r="37" fill="black" fill-opacity="0.04"/>
<path d="M32.7125 41.2606C32.7121 41.5748 32.4574 41.8292 32.1432 41.83H27.0798C25.798 41.813 24.5785 42.3811 23.7665 43.373C23.0819 44.2246 22.7345 45.0689 22.7345 45.8836C22.7345 46.1982 22.4794 46.4534 22.1652 46.4534C21.8506 46.4534 21.5959 46.1982 21.5959 45.8836C21.5959 44.8028 22.0277 43.7183 22.8781 42.6596V42.6601C23.9056 41.3981 25.4527 40.6731 27.0798 40.6909H32.1432C32.2944 40.6909 32.4392 40.7511 32.5459 40.8579C32.6527 40.9646 32.7125 41.1094 32.7125 41.2606Z" fill="black"/>
<path d="M53.0347 46.223C53.8527 46.223 54.6371 46.5477 55.2158 47.126C55.794 47.7038 56.1191 48.4883 56.1191 49.3062C56.1191 50.1239 55.7944 50.9084 55.2162 51.4865C54.6379 52.0646 53.8535 52.3899 53.0355 52.3899C52.2179 52.3894 51.4334 52.0647 50.8553 51.4861C50.277 50.9079 49.9523 50.1234 49.9527 49.3054C49.9539 48.4882 50.2786 47.7049 50.8565 47.1271C51.4343 46.5493 52.2179 46.2242 53.0347 46.223ZM53.0347 51.25C53.5507 51.2504 54.0456 51.0454 54.4103 50.6811C54.775 50.3163 54.9801 49.8218 54.9805 49.3063C54.9805 48.7903 54.7758 48.2958 54.4111 47.9306C54.0468 47.5659 53.5519 47.3609 53.0363 47.3609C52.5204 47.3609 52.0258 47.5655 51.6611 47.9302C51.2964 48.295 51.0914 48.7895 51.0914 49.3054C51.0918 49.821 51.2968 50.3151 51.6611 50.6794C52.0254 51.0437 52.5195 51.2492 53.0347 51.25Z" fill="black"/>
<path d="M18.6509 23.6381H29.3938C29.6061 22.518 30.3541 21.5735 31.3954 21.11C30.27 20.2823 29.5786 18.9908 29.5134 17.5954C29.4488 16.2 30.0173 14.8498 31.0609 13.9214C32.1045 12.993 33.5117 12.5854 34.8902 12.8122C36.2686 13.0391 37.4708 13.8765 38.1618 15.0908C38.8524 16.3047 38.9583 17.7661 38.4493 19.0668C37.9406 20.3676 36.8715 21.3692 35.54 21.7926L44.3897 26.5046C45.0039 26.8297 45.4624 27.3865 45.6639 28.0517C45.6833 28.1168 45.7007 28.1819 45.7148 28.2474H46.8535C47.8866 28.253 48.8729 28.6801 49.5846 29.4289C49.7475 28.7447 50.1365 28.1354 50.6884 27.6991C51.24 27.2628 51.9226 27.025 52.6262 27.0238H53.9084C54.2214 27.0262 54.4737 27.2806 54.4737 27.5931V32.7078C54.4737 33.022 54.219 33.2772 53.9044 33.2772H52.625C51.9 33.278 51.1972 33.0261 50.638 32.5639V37.2791L52.232 39.4182C59.1586 39.5658 60.8747 45.0144 60.8901 45.0703C60.9423 45.2422 60.9107 45.4286 60.8044 45.5734C60.698 45.7181 60.5298 45.8042 60.3503 45.8059H59.0341C60.104 47.6428 60.2735 49.8689 59.4943 51.8465C58.7155 53.8242 57.0733 55.3365 55.0382 55.9507C53.0031 56.5645 50.7989 56.2131 49.0557 54.996C47.3125 53.7793 46.2228 51.8311 46.0979 49.7091H34.6894C34.5507 52.0907 33.1997 54.2347 31.1113 55.3871C29.0224 56.5399 26.4883 56.5399 24.3994 55.3871C22.3108 54.2347 20.9598 52.0907 20.8212 49.7091H19.4647C19.1687 49.7091 18.922 49.4822 18.8973 49.1874C18.8658 48.8158 18.2629 40.9288 22.9393 37.2552H18.6507C18.3361 37.2552 18.0813 37.0004 18.0813 36.6858V24.2112C18.0805 24.0595 18.14 23.914 18.2467 23.8064C18.3539 23.6988 18.499 23.6382 18.6507 23.6378L18.6509 23.6381ZM37.6285 17.3786C37.6285 16.4526 37.2605 15.5643 36.6054 14.9092C35.9508 14.2542 35.062 13.8862 34.1361 13.8862C33.2097 13.8862 32.3213 14.2542 31.6663 14.9092C31.0112 15.5643 30.6433 16.4526 30.6433 17.3786C30.6433 18.305 31.0112 19.1933 31.6663 19.8484C32.3213 20.5034 33.2097 20.8714 34.1361 20.8714C35.062 20.8706 35.9497 20.5022 36.6043 19.8472C37.2593 19.1925 37.6276 18.3051 37.6285 17.3786ZM44.5793 28.3875C44.4653 28.0114 44.2057 27.6964 43.8584 27.5125L33.755 22.1341L33.7429 22.1563L33.7425 22.1567C33.0243 21.8353 32.1918 21.8996 31.5315 22.3282C30.8712 22.7564 30.4728 23.4903 30.4741 24.2776V36.1136H39.6607C39.9753 36.1136 40.23 36.3687 40.23 36.6829V44.6637H42.5943V35.3384C42.5935 34.8924 42.416 34.465 42.1006 34.1497C41.7852 33.8343 41.3574 33.6572 40.9114 33.6568H35.6891C35.3746 33.6568 35.1198 33.402 35.1198 33.0874V27.5024L31.8287 25.7503V25.7507C31.6937 25.6804 31.5926 25.5595 31.5473 25.4143C31.502 25.2692 31.517 25.1119 31.5881 24.9776C31.6597 24.8434 31.7818 24.7435 31.9274 24.6998C32.073 24.6561 32.2299 24.6723 32.3633 24.7451L42.4678 30.1194C42.6809 30.2343 42.9194 30.2941 43.1616 30.2933C43.6295 30.2933 44.0698 30.0717 44.3489 29.6965C44.6283 29.3212 44.7136 28.836 44.5793 28.3875ZM36.275 37.2494V44.6609H39.0934V37.2494H36.275ZM46.2776 29.3826H45.7204C45.5429 30.1816 45.0018 30.8516 44.2582 31.1937C43.515 31.5358 42.6542 31.5103 41.9319 31.1258L36.2583 28.1056V32.5151H40.9113C41.6593 32.516 42.3762 32.8132 42.9052 33.3421C43.4341 33.8706 43.7317 34.5875 43.7329 35.3356V44.3908L45.5574 41.0702C46.0284 40.2114 46.2763 39.2478 46.2775 38.2681L46.2776 29.3826ZM52.6296 32.1326H53.3425V28.1602H52.6296L52.6292 28.1606C51.941 28.1917 51.3179 28.5767 50.9827 29.1787C50.6471 29.7804 50.6471 30.5132 50.9827 31.1148C51.3179 31.7165 51.941 32.1018 52.6292 32.133L52.6296 32.1326ZM52.2742 40.5534L49.9111 44.6584H59.4859C58.7941 43.3414 56.8394 40.6811 52.2738 40.5586L52.2742 40.5534ZM53.036 55.1066L53.0356 55.107C54.4824 55.1066 55.8762 54.566 56.9454 53.5915C58.0141 52.6174 58.6809 51.2789 58.8148 49.8386C58.949 48.3983 58.5402 46.9599 57.6697 45.8051H49.2562L47.2292 49.3274H47.2288C47.2369 50.8632 47.8519 52.3334 48.9396 53.4171C50.0278 54.5008 51.5004 55.1101 53.0357 55.1122L53.036 55.1066ZM27.7585 55.1066V55.107C29.2288 55.1054 30.6436 54.5466 31.7184 53.5434C32.7932 52.5402 33.4483 51.167 33.5514 49.7004H30.8143C30.6829 50.6972 30.0735 51.5673 29.1816 52.0312C28.2895 52.4954 27.2273 52.4954 26.3357 52.0312C25.4437 51.5674 24.8343 50.6972 24.703 49.7004H21.9666C22.0685 51.1679 22.7228 52.5418 23.7976 53.5462C24.8724 54.5502 26.2877 55.1098 27.7587 55.1123L27.7585 55.1066ZM29.6602 49.7L25.8516 49.7004C25.9753 50.2867 26.3623 50.7829 26.9005 51.0461C27.4387 51.309 28.0682 51.309 28.6064 51.0461C29.1446 50.7829 29.5316 50.2867 29.6549 49.7004L29.6602 49.7ZM20.0082 48.5613L46.3509 48.5617L51.2687 40.0189L49.6165 37.8006V37.8002C49.5429 37.7019 49.5032 37.5826 49.5032 37.4597V32.0542C49.5028 31.4477 49.2958 30.8593 48.9165 30.3863C48.5372 29.9128 48.0079 29.5824 47.4164 29.4498V38.2676C47.4156 39.4398 47.1196 40.5931 46.5555 41.621L44.4164 45.5081V45.5077C44.3162 45.6893 44.1249 45.8021 43.9175 45.8021H35.7013C35.3871 45.8021 35.132 45.5474 35.132 45.2328V37.2491H25.1387C20.1343 39.4654 19.9561 46.5764 20.0079 48.5665L20.0082 48.5613ZM19.2209 36.1084L29.3351 36.1088V24.778H19.2205L19.2209 36.1084Z" fill="black"/>
</svg>
