<svg width="25" height="25" viewBox="0 0 25 25" fill="none" xmlns="http://www.w3.org/2000/svg">
<path d="M22.9167 12.4999C22.9167 18.2529 18.253 22.9166 12.5 22.9166C6.74704 22.9166 2.08334 18.2529 2.08334 12.4999C2.08334 6.74695 6.74704 2.08325 12.5 2.08325C18.253 2.08325 22.9167 6.74695 22.9167 12.4999Z" fill="white"/>
<path d="M22.9167 12.5636C22.9167 6.77545 18.253 2.08325 12.5 2.08325C6.74703 2.08325 2.08334 6.77545 2.08334 12.5636C2.08334 17.7945 5.89254 22.1304 10.8724 22.9166V15.593H8.22754V12.5636H10.8724V10.2546C10.8724 7.628 12.4276 6.17713 14.8069 6.17713C15.9462 6.17713 17.1387 6.38182 17.1387 6.38182V8.96097H15.8252C14.5313 8.96097 14.1276 9.76889 14.1276 10.5985V12.5636H17.0166L16.5548 15.593H14.1276V22.9166C19.1075 22.1304 22.9167 17.7945 22.9167 12.5636Z" fill="url(#paint0_linear_6_161)"/>
<defs>
<linearGradient id="paint0_linear_6_161" x1="12.5" y1="2.08325" x2="12.5" y2="22.9166" gradientUnits="userSpaceOnUse">
<stop stop-color="#50AAF7"/>
<stop offset="1" stop-color="#2961D8"/>
</linearGradient>
</defs>
</svg>
