<svg width="25" height="25" viewBox="0 0 25 25" fill="none" xmlns="http://www.w3.org/2000/svg">
<path fill-rule="evenodd" clip-rule="evenodd" d="M12.5055 7.68433C9.84525 7.68433 7.687 9.84131 7.687 12.5C7.687 15.1587 9.84525 17.3157 12.5055 17.3157C15.1657 17.3157 17.324 15.1587 17.324 12.5C17.324 9.84131 15.1657 7.68433 12.5055 7.68433ZM12.5055 15.6238C10.7796 15.6238 9.37989 14.2249 9.37989 12.5C9.37989 10.7751 10.7796 9.37622 12.5055 9.37622C14.2314 9.37622 15.6311 10.7751 15.6311 12.5C15.6311 14.2249 14.2314 15.6238 12.5055 15.6238Z" fill="url(#paint0_linear_6_153)"/>
<path d="M17.5145 8.61818C18.1338 8.61818 18.6395 8.11647 18.6395 7.49391C18.6395 6.87501 18.1338 6.36964 17.5145 6.36964C16.8953 6.36964 16.3896 6.87135 16.3896 7.49391C16.3896 8.1128 16.8916 8.61818 17.5145 8.61818Z" fill="url(#paint1_linear_6_153)"/>
<path fill-rule="evenodd" clip-rule="evenodd" d="M12.5055 3.125C9.95884 3.125 9.64005 3.13599 8.63971 3.17993C7.64303 3.22388 6.95781 3.38501 6.3642 3.61572C5.74494 3.85742 5.22095 4.17603 4.70063 4.69971C4.17664 5.21973 3.85785 5.74341 3.61601 6.35864C3.38516 6.95557 3.22393 7.63672 3.17996 8.63281C3.13599 9.63623 3.125 9.95483 3.125 12.5C3.125 15.0452 3.13599 15.3638 3.17996 16.3635C3.22393 17.3596 3.38516 18.0444 3.61601 18.6377C3.85785 19.2566 4.17664 19.7803 4.70063 20.3003C5.22095 20.8203 5.74494 21.1426 6.36054 21.3806C6.95781 21.6113 7.63936 21.7725 8.63604 21.8164C9.63638 21.8603 9.95517 21.8713 12.5018 21.8713C15.0485 21.8713 15.3673 21.8603 16.3676 21.8164C17.3643 21.7725 18.0495 21.6113 18.6431 21.3806C19.2587 21.1426 19.7827 20.8203 20.303 20.3003C20.8234 19.7803 21.1458 19.2566 21.384 18.6414C21.6148 18.0444 21.7761 17.3633 21.82 16.3672C21.864 15.3674 21.875 15.0488 21.875 12.5037C21.875 9.9585 21.864 9.63989 21.82 8.64014C21.7761 7.64404 21.6148 6.95923 21.384 6.36597C21.1531 5.74341 20.8344 5.21973 20.3104 4.69971C19.79 4.17969 19.2661 3.85742 18.6505 3.61938C18.0532 3.38867 17.3716 3.22754 16.375 3.18359C15.3709 3.13599 15.0522 3.125 12.5055 3.125ZM12.5055 4.81323C15.0118 4.81323 15.3087 4.82422 16.2943 4.86816C17.2104 4.90845 17.7051 5.06226 18.0349 5.19043C18.4709 5.35889 18.786 5.56396 19.1122 5.88989C19.4419 6.21948 19.6435 6.53076 19.812 6.96655C19.9403 7.29614 20.0942 7.79419 20.1345 8.70605C20.1784 9.69482 20.1894 9.99145 20.1894 12.4927C20.1894 14.9976 20.1784 15.2942 20.1345 16.2793C20.0942 17.1948 19.9403 17.6892 19.812 18.0188C19.6435 18.4546 19.4383 18.7695 19.1122 19.0955C18.7824 19.425 18.4709 19.6265 18.0349 19.7949C17.7051 19.9231 17.2067 20.0769 16.2943 20.1172C15.305 20.1611 15.0082 20.1721 12.5055 20.1721C9.99915 20.1721 9.70234 20.1611 8.71666 20.1172C7.80059 20.0769 7.30592 19.9231 6.97613 19.7949C6.54009 19.6265 6.22496 19.4214 5.89884 19.0955C5.56906 18.7659 5.36752 18.4546 5.19897 18.0188C5.07072 17.6892 4.91682 17.1912 4.87651 16.2793C4.83254 15.2905 4.82155 14.9939 4.82155 12.4927C4.82155 9.98779 4.83254 9.69116 4.87651 8.70605C4.91682 7.79053 5.07072 7.29614 5.19897 6.96655C5.36752 6.53076 5.57272 6.21582 5.89884 5.88989C6.22863 5.5603 6.54009 5.35889 6.97613 5.19043C7.30592 5.06226 7.80426 4.90845 8.71666 4.86816C9.70234 4.82422 9.99915 4.81323 12.5055 4.81323Z" fill="url(#paint2_linear_6_153)"/>
<defs>
<linearGradient id="paint0_linear_6_153" x1="16.6667" y1="3.125" x2="6.77083" y2="21.875" gradientUnits="userSpaceOnUse">
<stop stop-color="#6E3BF1"/>
<stop offset="0.241314" stop-color="#C128BF"/>
<stop offset="0.475694" stop-color="#EA336B"/>
<stop offset="0.715281" stop-color="#EE8131"/>
<stop offset="0.913202" stop-color="#F8D849"/>
</linearGradient>
<linearGradient id="paint1_linear_6_153" x1="16.6667" y1="3.125" x2="6.77083" y2="21.875" gradientUnits="userSpaceOnUse">
<stop stop-color="#6E3BF1"/>
<stop offset="0.241314" stop-color="#C128BF"/>
<stop offset="0.475694" stop-color="#EA336B"/>
<stop offset="0.715281" stop-color="#EE8131"/>
<stop offset="0.913202" stop-color="#F8D849"/>
</linearGradient>
<linearGradient id="paint2_linear_6_153" x1="16.6667" y1="3.125" x2="6.77083" y2="21.875" gradientUnits="userSpaceOnUse">
<stop stop-color="#6E3BF1"/>
<stop offset="0.241314" stop-color="#C128BF"/>
<stop offset="0.475694" stop-color="#EA336B"/>
<stop offset="0.715281" stop-color="#EE8131"/>
<stop offset="0.913202" stop-color="#F8D849"/>
</linearGradient>
</defs>
</svg>
