<svg width="39" height="40" viewBox="0 0 39 40" fill="none" xmlns="http://www.w3.org/2000/svg">
<rect opacity="0.25" x="0.75" y="1.50757" width="37.5" height="37.303" rx="18.6515" stroke="white" stroke-width="1.5"/>
<path fill-rule="evenodd" clip-rule="evenodd" d="M16 26.6264H13V17.6719H16V26.6264V26.6264Z" fill="white"/>
<path fill-rule="evenodd" clip-rule="evenodd" d="M14.4911 15.6819H14.474C13.5788 15.6819 13 15.0183 13 14.1889C13 13.3421 13.5964 12.697 14.5087 12.697C15.4209 12.697 15.9827 13.3421 16 14.1889C16 15.0183 15.4209 15.6819 14.4911 15.6819V15.6819Z" fill="white"/>
<path fill-rule="evenodd" clip-rule="evenodd" d="M26.9999 26.6262H24.0519V21.9455C24.0519 20.7699 23.6253 19.9676 22.5581 19.9676C21.7437 19.9676 21.2586 20.5084 21.0455 21.0308C20.9675 21.218 20.9484 21.4789 20.9484 21.7403V26.6264H18C18 26.6264 18.0389 18.6985 18 17.8775H20.9484V19.1168C21.3397 18.521 22.0405 17.6719 23.6057 17.6719C25.5456 17.6719 27 18.9226 27 21.6099L26.9999 26.6262V26.6262Z" fill="white"/>
</svg>
