<svg width="91" height="40" viewBox="0 0 91 40" fill="none" xmlns="http://www.w3.org/2000/svg">
<path d="M5.094 4.382C6.966 4.382 8.4 4.718 9.396 5.39C10.392 6.05 10.89 7.082 10.89 8.486C10.89 9.362 10.686 10.076 10.278 10.628C9.882 11.168 9.306 11.594 8.55 11.906C8.802 12.218 9.066 12.578 9.342 12.986C9.618 13.382 9.888 13.802 10.152 14.246C10.428 14.678 10.692 15.134 10.944 15.614C11.196 16.082 11.43 16.544 11.646 17H8.496C8.268 16.592 8.034 16.178 7.794 15.758C7.566 15.338 7.326 14.93 7.074 14.534C6.834 14.138 6.594 13.766 6.354 13.418C6.114 13.058 5.874 12.734 5.634 12.446H4.248V17H1.44V4.706C2.052 4.586 2.682 4.502 3.33 4.454C3.99 4.406 4.578 4.382 5.094 4.382ZM5.256 6.776C5.052 6.776 4.866 6.782 4.698 6.794C4.542 6.806 4.392 6.818 4.248 6.83V10.214H5.04C6.096 10.214 6.852 10.082 7.308 9.818C7.764 9.554 7.992 9.104 7.992 8.468C7.992 7.856 7.758 7.424 7.29 7.172C6.834 6.908 6.156 6.776 5.256 6.776ZM12.3588 12.338C12.3588 11.498 12.4848 10.766 12.7368 10.142C13.0008 9.506 13.3428 8.978 13.7628 8.558C14.1828 8.138 14.6628 7.82 15.2028 7.604C15.7548 7.388 16.3188 7.28 16.8948 7.28C18.2388 7.28 19.3008 7.694 20.0808 8.522C20.8608 9.338 21.2508 10.544 21.2508 12.14C21.2508 12.296 21.2448 12.47 21.2328 12.662C21.2208 12.842 21.2088 13.004 21.1968 13.148H15.1128C15.1728 13.7 15.4308 14.138 15.8868 14.462C16.3428 14.786 16.9548 14.948 17.7228 14.948C18.2148 14.948 18.6948 14.906 19.1628 14.822C19.6428 14.726 20.0328 14.612 20.3328 14.48L20.6928 16.658C20.5488 16.73 20.3568 16.802 20.1168 16.874C19.8768 16.946 19.6068 17.006 19.3068 17.054C19.0188 17.114 18.7068 17.162 18.3708 17.198C18.0348 17.234 17.6988 17.252 17.3628 17.252C16.5108 17.252 15.7668 17.126 15.1308 16.874C14.5068 16.622 13.9848 16.28 13.5648 15.848C13.1568 15.404 12.8508 14.882 12.6468 14.282C12.4548 13.682 12.3588 13.034 12.3588 12.338ZM18.6588 11.312C18.6468 11.084 18.6048 10.862 18.5328 10.646C18.4728 10.43 18.3708 10.238 18.2268 10.07C18.0948 9.902 17.9208 9.764 17.7048 9.656C17.5008 9.548 17.2428 9.494 16.9308 9.494C16.6308 9.494 16.3728 9.548 16.1568 9.656C15.9408 9.752 15.7608 9.884 15.6168 10.052C15.4728 10.22 15.3588 10.418 15.2748 10.646C15.2028 10.862 15.1488 11.084 15.1128 11.312H18.6588ZM26.9385 15.128C27.2025 15.128 27.4545 15.122 27.6945 15.11C27.9345 15.098 28.1265 15.08 28.2705 15.056V13.022C28.1625 12.998 28.0005 12.974 27.7845 12.95C27.5685 12.926 27.3705 12.914 27.1905 12.914C26.9385 12.914 26.6985 12.932 26.4705 12.968C26.2545 12.992 26.0625 13.046 25.8945 13.13C25.7265 13.214 25.5945 13.328 25.4985 13.472C25.4025 13.616 25.3545 13.796 25.3545 14.012C25.3545 14.432 25.4925 14.726 25.7685 14.894C26.0565 15.05 26.4465 15.128 26.9385 15.128ZM26.7225 7.28C27.5145 7.28 28.1745 7.37 28.7025 7.55C29.2305 7.73 29.6505 7.988 29.9625 8.324C30.2865 8.66 30.5145 9.068 30.6465 9.548C30.7785 10.028 30.8445 10.562 30.8445 11.15V16.73C30.4605 16.814 29.9265 16.91 29.2425 17.018C28.5585 17.138 27.7305 17.198 26.7585 17.198C26.1465 17.198 25.5885 17.144 25.0845 17.036C24.5925 16.928 24.1665 16.754 23.8065 16.514C23.4465 16.262 23.1705 15.938 22.9785 15.542C22.7865 15.146 22.6905 14.66 22.6905 14.084C22.6905 13.532 22.7985 13.064 23.0145 12.68C23.2425 12.296 23.5425 11.99 23.9145 11.762C24.2865 11.534 24.7125 11.372 25.1925 11.276C25.6725 11.168 26.1705 11.114 26.6865 11.114C27.0345 11.114 27.3405 11.132 27.6045 11.168C27.8805 11.192 28.1025 11.228 28.2705 11.276V11.024C28.2705 10.568 28.1325 10.202 27.8565 9.926C27.5805 9.65 27.1005 9.512 26.4165 9.512C25.9605 9.512 25.5105 9.548 25.0665 9.62C24.6225 9.68 24.2385 9.77 23.9145 9.89L23.5725 7.73C23.7285 7.682 23.9205 7.634 24.1485 7.586C24.3885 7.526 24.6465 7.478 24.9225 7.442C25.1985 7.394 25.4865 7.358 25.7865 7.334C26.0985 7.298 26.4105 7.28 26.7225 7.28ZM35.5558 12.194C35.5558 13.022 35.7418 13.688 36.1138 14.192C36.4858 14.696 37.0378 14.948 37.7698 14.948C38.0098 14.948 38.2318 14.942 38.4358 14.93C38.6398 14.906 38.8078 14.882 38.9398 14.858V9.98C38.7718 9.872 38.5498 9.782 38.2738 9.71C38.0098 9.638 37.7398 9.602 37.4638 9.602C36.1918 9.602 35.5558 10.466 35.5558 12.194ZM41.6218 16.694C41.3818 16.766 41.1058 16.838 40.7938 16.91C40.4818 16.97 40.1518 17.024 39.8038 17.072C39.4678 17.12 39.1198 17.156 38.7598 17.18C38.4118 17.216 38.0758 17.234 37.7518 17.234C36.9718 17.234 36.2758 17.12 35.6638 16.892C35.0518 16.664 34.5358 16.34 34.1158 15.92C33.6958 15.488 33.3718 14.972 33.1438 14.372C32.9278 13.76 32.8198 13.076 32.8198 12.32C32.8198 11.552 32.9158 10.862 33.1078 10.25C33.2998 9.626 33.5758 9.098 33.9358 8.666C34.2958 8.234 34.7338 7.904 35.2498 7.676C35.7778 7.448 36.3778 7.334 37.0498 7.334C37.4218 7.334 37.7518 7.37 38.0398 7.442C38.3398 7.514 38.6398 7.616 38.9398 7.748V3.464L41.6218 3.032V16.694ZM52.2578 7.532C51.7178 9.356 51.1538 11.066 50.5658 12.662C49.9778 14.258 49.3358 15.806 48.6398 17.306C48.3878 17.846 48.1358 18.302 47.8838 18.674C47.6318 19.058 47.3558 19.37 47.0558 19.61C46.7558 19.862 46.4138 20.042 46.0298 20.15C45.6578 20.27 45.2198 20.33 44.7158 20.33C44.2958 20.33 43.9058 20.288 43.5458 20.204C43.1978 20.132 42.9098 20.048 42.6818 19.952L43.1498 17.81C43.4258 17.906 43.6718 17.972 43.8878 18.008C44.1038 18.044 44.3318 18.062 44.5718 18.062C45.0518 18.062 45.4178 17.93 45.6698 17.666C45.9338 17.414 46.1558 17.06 46.3358 16.604C45.7238 15.404 45.1118 14.06 44.4998 12.572C43.8878 11.072 43.3118 9.392 42.7718 7.532H45.6158C45.7358 8 45.8738 8.51 46.0298 9.062C46.1978 9.602 46.3718 10.154 46.5518 10.718C46.7318 11.27 46.9118 11.81 47.0918 12.338C47.2838 12.866 47.4638 13.346 47.6318 13.778C47.7878 13.346 47.9498 12.866 48.1178 12.338C48.2858 11.81 48.4478 11.27 48.6038 10.718C48.7718 10.154 48.9278 9.602 49.0718 9.062C49.2278 8.51 49.3658 8 49.4858 7.532H52.2578Z" fill="#FF6B00"/>
<path d="M1.44 37V24.526H9.792V26.884H4.248V29.494H9.18V31.852H4.248V37H1.44ZM14.2779 37H11.5959V27.532H14.2779V37ZM14.5299 24.796C14.5299 25.288 14.3679 25.678 14.0439 25.966C13.7319 26.242 13.3599 26.38 12.9279 26.38C12.4959 26.38 12.1179 26.242 11.7939 25.966C11.4819 25.678 11.3259 25.288 11.3259 24.796C11.3259 24.304 11.4819 23.92 11.7939 23.644C12.1179 23.356 12.4959 23.212 12.9279 23.212C13.3599 23.212 13.7319 23.356 14.0439 23.644C14.3679 23.92 14.5299 24.304 14.5299 24.796ZM16.7091 25.174L19.3911 24.742V27.532H22.6131V29.764H19.3911V33.094C19.3911 33.658 19.4871 34.108 19.6791 34.444C19.8831 34.78 20.2851 34.948 20.8851 34.948C21.1731 34.948 21.4671 34.924 21.7671 34.876C22.0791 34.816 22.3611 34.738 22.6131 34.642L22.9911 36.73C22.6671 36.862 22.3071 36.976 21.9111 37.072C21.5151 37.168 21.0291 37.216 20.4531 37.216C19.7211 37.216 19.1151 37.12 18.6351 36.928C18.1551 36.724 17.7711 36.448 17.4831 36.1C17.1951 35.74 16.9911 35.308 16.8711 34.804C16.7631 34.3 16.7091 33.742 16.7091 33.13V25.174Z" fill="white"/>
<path d="M35.3853 26.686C34.0773 26.686 33.1293 27.052 32.5413 27.784C31.9653 28.504 31.6773 29.494 31.6773 30.754C31.6773 31.366 31.7493 31.924 31.8933 32.428C32.0373 32.92 32.2533 33.346 32.5413 33.706C32.8293 34.066 33.1893 34.348 33.6213 34.552C34.0533 34.744 34.5573 34.84 35.1333 34.84C35.4453 34.84 35.7093 34.834 35.9253 34.822C36.1533 34.81 36.3513 34.786 36.5193 34.75V30.412H39.3273V36.586C38.9913 36.718 38.4513 36.856 37.7073 37C36.9633 37.156 36.0453 37.234 34.9533 37.234C34.0173 37.234 33.1653 37.09 32.3973 36.802C31.6413 36.514 30.9933 36.094 30.4533 35.542C29.9133 34.99 29.4933 34.312 29.1933 33.508C28.9053 32.704 28.7613 31.786 28.7613 30.754C28.7613 29.71 28.9233 28.786 29.2473 27.982C29.5713 27.178 30.0153 26.5 30.5793 25.948C31.1433 25.384 31.8033 24.958 32.5593 24.67C33.3273 24.382 34.1433 24.238 35.0073 24.238C35.5953 24.238 36.1233 24.28 36.5913 24.364C37.0713 24.436 37.4793 24.526 37.8153 24.634C38.1633 24.73 38.4453 24.832 38.6613 24.94C38.8893 25.048 39.0513 25.132 39.1473 25.192L38.3373 27.442C37.9533 27.238 37.5093 27.064 37.0053 26.92C36.5133 26.764 35.9733 26.686 35.3853 26.686ZM50.616 32.248C50.616 32.992 50.508 33.676 50.292 34.3C50.076 34.912 49.764 35.44 49.356 35.884C48.948 36.316 48.456 36.652 47.88 36.892C47.316 37.132 46.68 37.252 45.972 37.252C45.276 37.252 44.64 37.132 44.064 36.892C43.5 36.652 43.014 36.316 42.606 35.884C42.198 35.44 41.88 34.912 41.652 34.3C41.424 33.676 41.31 32.992 41.31 32.248C41.31 31.504 41.424 30.826 41.652 30.214C41.892 29.602 42.216 29.08 42.624 28.648C43.044 28.216 43.536 27.88 44.1 27.64C44.676 27.4 45.3 27.28 45.972 27.28C46.656 27.28 47.28 27.4 47.844 27.64C48.42 27.88 48.912 28.216 49.32 28.648C49.728 29.08 50.046 29.602 50.274 30.214C50.502 30.826 50.616 31.504 50.616 32.248ZM47.88 32.248C47.88 31.42 47.712 30.772 47.376 30.304C47.052 29.824 46.584 29.584 45.972 29.584C45.36 29.584 44.886 29.824 44.55 30.304C44.214 30.772 44.046 31.42 44.046 32.248C44.046 33.076 44.214 33.736 44.55 34.228C44.886 34.708 45.36 34.948 45.972 34.948C46.584 34.948 47.052 34.708 47.376 34.228C47.712 33.736 47.88 33.076 47.88 32.248Z" fill="#68B268"/>
<path d="M62 25H89.4V27.6C89.4 30.1726 88.3781 32.6399 86.559 34.459C84.7399 36.2781 82.2726 37.3 79.7 37.3H71.7C69.1274 37.3 66.6602 36.2781 64.8411 34.459C63.022 32.6399 62 30.1726 62 27.6V25Z" fill="#98C449" stroke="#98C449" stroke-width="1.7" stroke-linecap="round" stroke-linejoin="round"/>
<path d="M62.9 13.3H63.3C65.13 13.3 66.885 14.027 68.179 15.321C69.473 16.615 70.2 18.37 70.2 20.2H69.8C67.97 20.2 66.215 19.4731 64.921 18.1791C63.627 16.8851 62.9 15.13 62.9 13.3Z" fill="#5DA744" stroke="#5DA744" stroke-width="1.7" stroke-linejoin="round"/>
<path d="M73 15.2C73.1627 14.3081 73.6311 13.5007 74.3246 12.9167C75.0181 12.3327 75.8934 12.0085 76.8 12C77.8263 12.0254 78.8037 12.4444 79.5297 13.1704C80.2556 13.8963 80.6747 14.8737 80.7 15.9C80.6824 16.3067 80.6153 16.7096 80.5 17.1L81.7 16.9C82.7264 16.9254 83.7037 17.3444 84.4296 18.0704C85.1556 18.7963 85.5746 19.7737 85.6 20.8" stroke="#5DA744" stroke-width="1.7" stroke-linecap="round" stroke-linejoin="round"/>
<path d="M80.3 21.1001C79.2391 21.1001 78.2217 20.6787 77.4716 19.9285C76.7214 19.1784 76.3 18.161 76.3 17.1001" stroke="#FF6B00" stroke-width="1.7" stroke-linecap="round" stroke-linejoin="round"/>
</svg>
