<svg width="74" height="74" viewBox="0 0 74 74" fill="none" xmlns="http://www.w3.org/2000/svg">
<circle cx="37" cy="37" r="37" fill="black" fill-opacity="0.04"/>
<path d="M42.1566 39.8107H34.5308H31.7877C30.6911 39.8107 29.8019 40.7789 29.8019 41.9732V42.6134V51.7788H44.1433V42.6134V41.9732C44.1429 40.7789 43.2537 39.8107 42.1566 39.8107Z" fill="white"/>
<path d="M56.0453 27.149C56.0453 29.1169 54.58 30.7126 52.7729 30.7126C50.9658 30.7126 49.5005 29.1169 49.5005 27.149L47.005 22.7367H51.477L56.0453 27.149Z" fill="white"/>
<path d="M30.8242 22.7374L28.3287 27.1497C28.3287 29.1176 29.794 30.7133 31.6011 30.7133C33.4081 30.7133 34.8734 29.1176 34.8734 27.1497V22.7374H30.8242Z" fill="white"/>
<path d="M43.12 22.7374L45.6155 27.1497C45.6155 29.1176 44.1502 30.7133 42.3431 30.7133C40.5361 30.7133 39.0708 29.1176 39.0708 27.1497V22.7374H43.12Z" fill="white"/>
<path d="M17.8987 27.149C17.8987 29.1169 19.364 30.7126 21.1711 30.7126C22.9782 30.7126 24.4434 29.1169 24.4434 27.149L26.939 22.7367H22.4669L17.8987 27.149Z" fill="white"/>
<path d="M19.8158 52.3103C19.5463 52.3103 19.3276 52.0726 19.3276 51.7785V33.1586C19.3276 32.865 19.5463 32.6268 19.8158 32.6268C20.0854 32.6268 20.3041 32.865 20.3041 33.1586V51.7785C20.3041 52.0726 20.0858 52.3103 19.8158 52.3103Z" fill="black"/>
<path d="M54.1283 52.3101C53.8583 52.3101 53.6401 52.0724 53.6401 51.7784V33.1573C53.6401 32.8638 53.8583 32.6256 54.1283 32.6256C54.3983 32.6256 54.6166 32.8638 54.6166 33.1573V51.7784C54.6166 52.0724 54.3979 52.3101 54.1283 52.3101Z" fill="black"/>
<path d="M58.4559 57.409H27.36C27.0905 57.409 26.8718 57.1713 26.8718 56.8773C26.8718 56.5832 27.0905 56.3455 27.36 56.3455H57.9676V53.739C57.9676 52.9515 57.3793 52.3103 56.6557 52.3103H17.2885C16.5649 52.3103 15.9765 52.9515 15.9765 53.739V56.3455H20.6849C20.9544 56.3455 21.1732 56.5832 21.1732 56.8773C21.1732 57.1713 20.9544 57.409 20.6849 57.409H15.4883C15.2187 57.409 15 57.1713 15 56.8773V53.739C15 52.365 16.0268 51.2468 17.2885 51.2468H56.6561C57.9178 51.2468 58.9447 52.365 58.9447 53.739V56.8773C58.9442 57.1713 58.7259 57.409 58.4559 57.409Z" fill="black"/>
<path d="M42.3429 33.802C39.112 33.802 36.4837 30.9397 36.4837 27.4212V20.1797C36.4837 19.8862 36.7024 19.6479 36.972 19.6479H43.6178C43.7872 19.6479 43.9444 19.7437 44.0338 19.9011L48.1299 27.1426C48.1767 27.2261 48.2021 27.3229 48.2021 27.4212C48.2021 30.9397 45.5738 33.802 42.3429 33.802ZM37.4602 20.7114V27.4212C37.4602 30.3532 39.6506 32.7385 42.3429 32.7385C44.9903 32.7385 47.1519 30.4329 47.2236 27.5685L43.3453 20.7114H37.4602Z" fill="black"/>
<path d="M53.085 33.8022C49.901 33.8022 47.3025 31.0228 47.2278 27.5751L43.2025 20.459C43.1102 20.2947 43.1058 20.089 43.1922 19.9209C43.2787 19.7529 43.4417 19.6487 43.6185 19.6487H50.9586C51.0778 19.6487 51.193 19.6965 51.2823 19.7827L58.7797 27.0242C58.8847 27.1242 58.9443 27.2694 58.9443 27.4214C58.9443 30.9399 56.3159 33.8022 53.085 33.8022ZM44.492 20.7116L48.1296 27.1423C48.177 27.2263 48.2024 27.3231 48.2024 27.4214C48.2024 30.3534 50.3927 32.7387 53.085 32.7387C55.7051 32.7387 57.85 30.4794 57.9628 27.6559L50.7726 20.7116H44.492Z" fill="black"/>
<path d="M31.6013 33.802C28.3704 33.802 25.7421 30.9397 25.7421 27.4212C25.7421 27.3229 25.767 27.2261 25.8144 27.1426L29.9104 19.9011C29.9993 19.7442 30.1565 19.6479 30.3264 19.6479H36.9723C37.2418 19.6479 37.4605 19.8862 37.4605 20.1797V27.4212C37.4605 30.9397 34.8322 33.802 31.6013 33.802ZM26.7206 27.5685C26.7924 30.4324 28.9544 32.7385 31.6013 32.7385C34.2936 32.7385 36.484 30.3532 36.484 27.4212V20.7114H30.5994L26.7206 27.5685Z" fill="black"/>
<path d="M20.8592 33.802C17.6283 33.802 15 30.9397 15 27.4212C15 27.2692 15.0601 27.124 15.1641 27.0235L22.6619 19.7819C22.7513 19.6953 22.8665 19.6479 22.9861 19.6479H30.3263C30.503 19.6479 30.6661 19.7522 30.7525 19.9202C30.8389 20.0882 30.8345 20.2945 30.7423 20.4583L26.717 27.5744C26.6418 31.0226 24.0432 33.802 20.8592 33.802ZM15.9814 27.6557C16.0942 30.4792 18.2392 32.7385 20.8592 32.7385C23.5515 32.7385 25.7419 30.3532 25.7419 27.4212C25.7419 27.3229 25.7668 27.2261 25.8142 27.1426L29.4518 20.7119H23.1712L15.9814 27.6557Z" fill="black"/>
<path d="M58.4559 27.953H15.4883C15.2187 27.953 15 27.7148 15 27.4213C15 27.1277 15.2187 26.8895 15.4883 26.8895H58.4559C58.7259 26.8895 58.9442 27.1277 58.9442 27.4213C58.9442 27.7148 58.7259 27.953 58.4559 27.953Z" fill="black"/>
<path d="M51.0372 20.7114H22.9862C22.7166 20.7114 22.4979 20.4732 22.4979 20.1797V16.48C22.4979 15.1124 23.5193 14 24.7752 14H49.2482C50.5035 14 51.5255 15.1124 51.5255 16.48V20.1797C51.5255 20.4732 51.3067 20.7114 51.0372 20.7114ZM23.4744 19.648H50.5489V16.48C50.5489 15.6989 49.9654 15.0635 49.2482 15.0635H24.7752C24.0579 15.0635 23.4744 15.6989 23.4744 16.48V19.648Z" fill="black"/>
<path d="M46.584 52.3104C46.314 52.3104 46.0957 52.0727 46.0957 51.7787V39.3145C46.0957 38.4153 45.4239 37.6837 44.5982 37.6837H37.4602V41.2154C37.4602 41.5095 37.2415 41.7471 36.972 41.7471C36.7024 41.7471 36.4837 41.5095 36.4837 41.2154V37.152C36.4837 36.8579 36.7024 36.6202 36.972 36.6202H44.5977C45.962 36.6202 47.0718 37.8289 47.0718 39.3145V51.7787C47.0723 52.0727 46.8535 52.3104 46.584 52.3104Z" fill="black"/>
<path d="M36.972 52.31C36.7024 52.31 36.4837 52.0723 36.4837 51.7782V45.64C36.4837 45.346 36.7024 45.1083 36.972 45.1083C37.2415 45.1083 37.4602 45.346 37.4602 45.64V51.7782C37.4602 52.0723 37.2415 52.31 36.972 52.31Z" fill="black"/>
<path d="M39.6023 47.3589C39.3323 47.3589 39.114 47.1212 39.114 46.8272V45.6691C39.114 45.375 39.3323 45.1373 39.6023 45.1373C39.8723 45.1373 40.0906 45.375 40.0906 45.6691V46.8272C40.0906 47.1212 39.8718 47.3589 39.6023 47.3589Z" fill="black"/>
<path d="M27.3599 52.3104C27.0904 52.3104 26.8716 52.0727 26.8716 51.7787V39.3145C26.8716 37.8289 27.9815 36.6202 29.3457 36.6202H36.972C37.2415 36.6202 37.4602 36.8579 37.4602 37.152V41.2154C37.4602 41.5095 37.2415 41.7471 36.972 41.7471C36.7024 41.7471 36.4837 41.5095 36.4837 41.2154V37.6837H29.3457C28.52 37.6837 27.8482 38.4153 27.8482 39.3145V51.7787C27.8482 52.0727 27.6294 52.3104 27.3599 52.3104Z" fill="black"/>
<path d="M36.972 52.31C36.7024 52.31 36.4837 52.0723 36.4837 51.7782V45.64C36.4837 45.346 36.7024 45.1083 36.972 45.1083C37.2415 45.1083 37.4602 45.346 37.4602 45.64V51.7782C37.4602 52.0723 37.2415 52.31 36.972 52.31Z" fill="black"/>
<path d="M34.3423 47.3589C34.0728 47.3589 33.8541 47.1212 33.8541 46.8272V45.6691C33.8541 45.375 34.0728 45.1373 34.3423 45.1373C34.6119 45.1373 34.8306 45.375 34.8306 45.6691V46.8272C34.8306 47.1212 34.6119 47.3589 34.3423 47.3589Z" fill="black"/>
</svg>
